<svg xmlns='http://www.w3.org/2000/svg' width='900' height='520'>
<rect width='100%' height='100%' fill='white'/>
<text x='450.0' y='22' text-anchor='middle' font-size='20'>Solow Growth Model: Time Paths (Mock Data)</text>
<line x1="70" y1="460" x2="875" y2="460" stroke="#333" /><line x1="70" y1="35" x2="70" y2="460" stroke="#333" />
<text x='450.0' y='505' text-anchor='middle' font-size='13'>Period</text>
<text transform='translate(18 260.0) rotate(-90)' text-anchor='middle' font-size='13'>Level</text>
<polyline fill="none" stroke="#1f77b4" stroke-width="2.5" points="70.00,456.08 80.06,444.27 90.12,432.49 100.19,420.84 110.25,409.37 120.31,398.12 130.38,387.14 140.44,376.44 150.50,366.06 160.56,355.99 170.62,346.25 180.69,336.86 190.75,327.80 200.81,319.08 210.88,310.69 220.94,302.64 231.00,294.91 241.06,287.51 251.12,280.42 261.19,273.63 271.25,267.13 281.31,260.92 291.38,254.99 301.44,249.33 311.50,243.93 321.56,238.77 331.62,233.86 341.69,229.17 351.75,224.71 361.81,220.45 371.88,216.40 381.94,212.55 392.00,208.88 402.06,205.38 412.12,202.06 422.19,198.90 432.25,195.90 442.31,193.04 452.38,190.33 462.44,187.75 472.50,185.29 482.56,182.96 492.62,180.75 502.69,178.65 512.75,176.65 522.81,174.76 532.88,172.96 542.94,171.25 553.00,169.62 563.06,168.08 573.12,166.62 583.19,165.23 593.25,163.91 603.31,162.66 613.38,161.48 623.44,160.35 633.50,159.28 643.56,158.27 653.62,157.31 663.69,156.40 673.75,155.53 683.81,154.71 693.88,153.93 703.94,153.20 714.00,152.50 724.06,151.83 734.12,151.20 744.19,150.60 754.25,150.04 764.31,149.50 774.38,148.99 784.44,148.51 794.50,148.05 804.56,147.62 814.62,147.20 824.69,146.81 834.75,146.44 844.81,146.09 854.88,145.76 864.94,145.44 875.00,145.14" /><polyline fill="none" stroke="#ff7f0e" stroke-width="2.5" points="70.00,450.62 80.06,446.64 90.12,443.02 100.19,439.72 110.25,436.69 120.31,433.89 130.38,431.32 140.44,428.93 150.50,426.72 160.56,424.66 170.62,422.75 180.69,420.96 190.75,419.29 200.81,417.74 210.88,416.28 220.94,414.91 231.00,413.63 241.06,412.43 251.12,411.30 261.19,410.24 271.25,409.25 281.31,408.31 291.38,407.43 301.44,406.60 311.50,405.82 321.56,405.08 331.62,404.39 341.69,403.73 351.75,403.11 361.81,402.53 371.88,401.98 381.94,401.46 392.00,400.97 402.06,400.51 412.12,400.07 422.19,399.66 432.25,399.27 442.31,398.90 452.38,398.55 462.44,398.22 472.50,397.91 482.56,397.61 492.62,397.33 502.69,397.07 512.75,396.82 522.81,396.58 532.88,396.36 542.94,396.15 553.00,395.95 563.06,395.76 573.12,395.58 583.19,395.41 593.25,395.25 603.31,395.10 613.38,394.95 623.44,394.82 633.50,394.69 643.56,394.56 653.62,394.45 663.69,394.34 673.75,394.23 683.81,394.14 693.88,394.04 703.94,393.95 714.00,393.87 724.06,393.79 734.12,393.72 744.19,393.64 754.25,393.58 764.31,393.51 774.38,393.45 784.44,393.40 794.50,393.34 804.56,393.29 814.62,393.24 824.69,393.20 834.75,393.15 844.81,393.11 854.88,393.07 864.94,393.03 875.00,393.00" /><polyline fill="none" stroke="#2ca02c" stroke-width="2.5" points="70.00,456.28 80.06,443.20 90.12,431.31 100.19,418.86 110.25,407.15 120.31,393.90 130.38,379.77 140.44,368.84 150.50,356.14 160.56,346.26 170.62,335.14 180.69,325.16 190.75,319.23 200.81,304.32 210.88,296.14 220.94,287.69 231.00,285.19 241.06,277.98 251.12,268.82 261.19,261.12 271.25,252.77 281.31,247.84 291.38,240.60 301.44,238.62 311.50,230.64 321.56,225.34 331.62,223.65 341.69,211.34 351.75,210.11 361.81,203.13 371.88,204.12 381.94,199.56 392.00,193.18 402.06,187.21 412.12,179.38 422.19,175.36 432.25,172.43 442.31,168.85 452.38,161.80 462.44,149.80 472.50,152.05 482.56,142.67 492.62,136.72 502.69,139.27 512.75,128.31 522.81,118.60 532.88,127.89 542.94,116.95 553.00,112.40 563.06,112.12 573.12,103.64 583.19,103.49 593.25,107.36 603.31,95.71 613.38,94.95 623.44,92.63 633.50,89.66 643.56,93.79 653.62,94.51 663.69,100.52 673.75,92.12 683.81,97.48 693.88,96.81 703.94,100.32 714.00,98.91 724.06,96.74 734.12,88.34 744.19,102.19 754.25,98.75 764.31,90.09 774.38,83.25 784.44,85.23 794.50,94.10 804.56,94.47 814.62,78.85 824.69,80.79 834.75,79.33 844.81,66.29 854.88,62.09 864.94,62.77 875.00,58.61" /><polyline fill="none" stroke="#d62728" stroke-width="2.5" points="70.00,450.83 80.06,445.60 90.12,441.97 100.19,438.08 110.25,434.96 120.31,430.81 130.38,426.21 140.44,423.91 150.50,420.46 160.56,418.75 170.62,416.24 180.69,414.34 190.75,414.59 200.81,409.86 210.88,408.71 220.94,407.32 231.00,408.80 241.06,407.79 251.12,405.77 261.19,404.38 271.25,402.63 281.31,402.37 291.38,400.99 301.44,401.87 311.50,400.03 321.56,399.30 331.62,400.04 341.69,396.22 351.75,397.02 361.81,395.37 371.88,396.95 381.94,396.18 392.00,394.64 402.06,393.23 412.12,391.05 422.19,390.36 432.25,390.05 442.31,389.45 452.38,387.47 462.44,383.55 472.50,385.12 482.56,382.18 492.62,380.55 502.69,382.12 512.75,378.53 522.81,375.42 532.88,379.43 542.94,375.82 553.00,374.59 563.06,374.93 573.12,372.20 583.19,372.54 593.25,374.36 603.31,370.42 613.38,370.48 623.44,369.96 633.50,369.18 643.56,370.99 653.62,371.53 663.69,373.98 673.75,371.16 683.81,373.34 693.88,373.31 703.94,374.80 714.00,374.48 724.06,373.88 734.12,371.02 744.19,376.18 754.25,375.10 764.31,372.13 774.38,369.81 784.44,370.65 794.50,373.97 804.56,374.22 814.62,368.73 824.69,369.54 834.75,369.12 844.81,364.55 854.88,363.15 864.94,363.48 875.00,362.08" /><polyline fill="none" stroke="#9467bd" stroke-width="2.5" points="70.00,448.00 80.06,446.76 90.12,446.79 100.19,446.29 110.25,446.27 120.31,445.14 130.38,443.53 140.44,443.70 150.50,442.79 160.56,443.17 170.62,442.79 180.69,442.78 190.75,444.28 200.81,442.00 210.88,442.30 220.94,442.35 231.00,444.36 241.06,444.53 251.12,443.94 261.19,443.75 271.25,443.26 281.31,443.76 291.38,443.45 301.44,444.63 311.50,443.94 321.56,443.97 331.62,444.93 341.69,442.88 351.75,443.83 361.81,443.15 371.88,444.54 381.94,444.40 392.00,443.74 402.06,443.15 412.12,442.06 422.19,441.90 432.25,441.97 442.31,441.84 452.38,440.83 462.44,438.61 472.50,439.80 482.56,438.17 492.62,437.35 502.69,438.50 512.75,436.46 522.81,434.70 532.88,437.33 542.94,435.25 553.00,434.64 563.06,434.98 573.12,433.43 583.19,433.77 593.25,434.99 603.31,432.69 613.38,432.84 623.44,432.61 633.50,432.23 643.56,433.42 653.62,433.83 663.69,435.40 673.75,433.76 683.81,435.16 693.88,435.21 703.94,436.17 714.00,436.03 724.06,435.72 734.12,434.04 744.19,437.22 754.25,436.61 764.31,434.86 774.38,433.50 784.44,434.05 794.50,436.09 804.56,436.27 814.62,433.00 824.69,433.52 834.75,433.29 844.81,430.57 854.88,429.75 864.94,429.98 875.00,429.16" />
<line x1="610" y1="60" x2="640" y2="60" stroke="#1f77b4" stroke-width="3"/><text x="648" y="64" font-size="12">k~ (capital per effective worker)</text><line x1="610" y1="80" x2="640" y2="80" stroke="#ff7f0e" stroke-width="3"/><text x="648" y="84" font-size="12">y~ (output per effective worker)</text><line x1="610" y1="100" x2="640" y2="100" stroke="#2ca02c" stroke-width="3"/><text x="648" y="104" font-size="12">k per worker</text><line x1="610" y1="120" x2="640" y2="120" stroke="#d62728" stroke-width="3"/><text x="648" y="124" font-size="12">y per worker</text><line x1="610" y1="140" x2="640" y2="140" stroke="#9467bd" stroke-width="3"/><text x="648" y="144" font-size="12">A (mock TFP)</text>
</svg>