<svg xmlns='http://www.w3.org/2000/svg' width='900' height='520'>
<rect width='100%' height='100%' fill='white'/>
<text x='450.0' y='22' text-anchor='middle' font-size='20'>Solow Phase Diagram (Mock Calibration)</text>
<line x1="70" y1="460" x2="875" y2="460" stroke="#333" /><line x1="70" y1="35" x2="70" y2="460" stroke="#333" />
<text x='450.0' y='505' text-anchor='middle' font-size='13'>Capital per effective worker (k~)</text>
<text transform='translate(18 260.0) rotate(-90)' text-anchor='middle' font-size='13'>Investment flow</text>
<polyline fill="none" stroke="#1f77b4" stroke-width="2.5" points="70.00,460.00 74.05,401.59 78.09,386.58 82.14,376.07 86.18,367.71 90.23,360.66 94.27,354.50 98.32,348.99 102.36,343.99 106.41,339.39 110.45,335.12 114.50,331.13 118.54,327.38 122.59,323.83 126.63,320.46 130.68,317.25 134.72,314.17 138.77,311.23 142.81,308.39 146.86,305.66 150.90,303.03 154.95,300.48 158.99,298.01 163.04,295.62 167.09,293.30 171.13,291.03 175.18,288.83 179.22,286.69 183.27,284.60 187.31,282.55 191.36,280.56 195.40,278.60 199.45,276.69 203.49,274.82 207.54,272.99 211.58,271.19 215.63,269.43 219.67,267.70 223.72,266.00 227.76,264.33 231.81,262.69 235.85,261.07 239.90,259.48 243.94,257.92 247.99,256.38 252.04,254.87 256.08,253.37 260.13,251.90 264.17,250.45 268.22,249.02 272.26,247.61 276.31,246.22 280.35,244.84 284.40,243.48 288.44,242.14 292.49,240.82 296.53,239.51 300.58,238.22 304.62,236.95 308.67,235.68 312.71,234.44 316.76,233.20 320.80,231.98 324.85,230.78 328.89,229.58 332.94,228.40 336.98,227.23 341.03,226.07 345.08,224.93 349.12,223.79 353.17,222.67 357.21,221.55 361.26,220.45 365.30,219.36 369.35,218.27 373.39,217.20 377.44,216.14 381.48,215.08 385.53,214.04 389.57,213.00 393.62,211.97 397.66,210.95 401.71,209.94 405.75,208.94 409.80,207.95 413.84,206.96 417.89,205.98 421.93,205.01 425.98,204.05 430.03,203.09 434.07,202.14 438.12,201.20 442.16,200.27 446.21,199.34 450.25,198.42 454.30,197.50 458.34,196.59 462.39,195.69 466.43,194.79 470.48,193.90 474.52,193.02 478.57,192.14 482.61,191.27 486.66,190.40 490.70,189.54 494.75,188.69 498.79,187.84 502.84,186.99 506.88,186.15 510.93,185.32 514.97,184.49 519.02,183.67 523.07,182.85 527.11,182.03 531.16,181.22 535.20,180.42 539.25,179.62 543.29,178.82 547.34,178.03 551.38,177.25 555.43,176.46 559.47,175.69 563.52,174.91 567.56,174.14 571.61,173.38 575.65,172.62 579.70,171.86 583.74,171.11 587.79,170.36 591.83,169.62 595.88,168.87 599.92,168.14 603.97,167.40 608.02,166.67 612.06,165.95 616.11,165.23 620.15,164.51 624.20,163.79 628.24,163.08 632.29,162.37 636.33,161.67 640.38,160.97 644.42,160.27 648.47,159.57 652.51,158.88 656.56,158.19 660.60,157.51 664.65,156.83 668.69,156.15 672.74,155.47 676.78,154.80 680.83,154.13 684.87,153.46 688.92,152.80 692.96,152.14 697.01,151.48 701.06,150.82 705.10,150.17 709.15,149.52 713.19,148.87 717.24,148.23 721.28,147.59 725.33,146.95 729.37,146.31 733.42,145.68 737.46,145.05 741.51,144.42 745.55,143.79 749.60,143.17 753.64,142.55 757.69,141.93 761.73,141.31 765.78,140.70 769.82,140.09 773.87,139.48 777.91,138.87 781.96,138.27 786.01,137.66 790.05,137.06 794.10,136.47 798.14,135.87 802.19,135.28 806.23,134.69 810.28,134.10 814.32,133.51 818.37,132.93 822.41,132.34 826.46,131.76 830.50,131.19 834.55,130.61 838.59,130.04 842.64,129.46 846.68,128.89 850.73,128.33 854.77,127.76 858.82,127.20 862.86,126.63 866.91,126.07 870.95,125.51 875.00,124.96" />
<polyline fill="none" stroke="#d62728" stroke-width="2.5" points="70.00,460.00 74.05,458.06 78.09,456.12 82.14,454.18 86.18,452.23 90.23,450.29 94.27,448.35 98.32,446.41 102.36,444.47 106.41,442.53 110.45,440.58 114.50,438.64 118.54,436.70 122.59,434.76 126.63,432.82 130.68,430.88 134.72,428.94 138.77,426.99 142.81,425.05 146.86,423.11 150.90,421.17 154.95,419.23 158.99,417.29 163.04,415.34 167.09,413.40 171.13,411.46 175.18,409.52 179.22,407.58 183.27,405.64 187.31,403.70 191.36,401.75 195.40,399.81 199.45,397.87 203.49,395.93 207.54,393.99 211.58,392.05 215.63,390.11 219.67,388.16 223.72,386.22 227.76,384.28 231.81,382.34 235.85,380.40 239.90,378.46 243.94,376.51 247.99,374.57 252.04,372.63 256.08,370.69 260.13,368.75 264.17,366.81 268.22,364.87 272.26,362.92 276.31,360.98 280.35,359.04 284.40,357.10 288.44,355.16 292.49,353.22 296.53,351.27 300.58,349.33 304.62,347.39 308.67,345.45 312.71,343.51 316.76,341.57 320.80,339.63 324.85,337.68 328.89,335.74 332.94,333.80 336.98,331.86 341.03,329.92 345.08,327.98 349.12,326.03 353.17,324.09 357.21,322.15 361.26,320.21 365.30,318.27 369.35,316.33 373.39,314.39 377.44,312.44 381.48,310.50 385.53,308.56 389.57,306.62 393.62,304.68 397.66,302.74 401.71,300.79 405.75,298.85 409.80,296.91 413.84,294.97 417.89,293.03 421.93,291.09 425.98,289.15 430.03,287.20 434.07,285.26 438.12,283.32 442.16,281.38 446.21,279.44 450.25,277.50 454.30,275.56 458.34,273.61 462.39,271.67 466.43,269.73 470.48,267.79 474.52,265.85 478.57,263.91 482.61,261.96 486.66,260.02 490.70,258.08 494.75,256.14 498.79,254.20 502.84,252.26 506.88,250.32 510.93,248.37 514.97,246.43 519.02,244.49 523.07,242.55 527.11,240.61 531.16,238.67 535.20,236.72 539.25,234.78 543.29,232.84 547.34,230.90 551.38,228.96 555.43,227.02 559.47,225.08 563.52,223.13 567.56,221.19 571.61,219.25 575.65,217.31 579.70,215.37 583.74,213.43 587.79,211.48 591.83,209.54 595.88,207.60 599.92,205.66 603.97,203.72 608.02,201.78 612.06,199.84 616.11,197.89 620.15,195.95 624.20,194.01 628.24,192.07 632.29,190.13 636.33,188.19 640.38,186.24 644.42,184.30 648.47,182.36 652.51,180.42 656.56,178.48 660.60,176.54 664.65,174.60 668.69,172.65 672.74,170.71 676.78,168.77 680.83,166.83 684.87,164.89 688.92,162.95 692.96,161.01 697.01,159.06 701.06,157.12 705.10,155.18 709.15,153.24 713.19,151.30 717.24,149.36 721.28,147.41 725.33,145.47 729.37,143.53 733.42,141.59 737.46,139.65 741.51,137.71 745.55,135.77 749.60,133.82 753.64,131.88 757.69,129.94 761.73,128.00 765.78,126.06 769.82,124.12 773.87,122.17 777.91,120.23 781.96,118.29 786.01,116.35 790.05,114.41 794.10,112.47 798.14,110.53 802.19,108.58 806.23,106.64 810.28,104.70 814.32,102.76 818.37,100.82 822.41,98.88 826.46,96.93 830.50,94.99 834.55,93.05 838.59,91.11 842.64,89.17 846.68,87.23 850.73,85.29 854.77,83.34 858.82,81.40 862.86,79.46 866.91,77.52 870.95,75.58 875.00,73.64" />
<line x1='720.75' y1='460.00' x2='720.75' y2='35.00' stroke='#000' stroke-dasharray='6 5'/>
<line x1='610' y1='60' x2='640' y2='60' stroke='#1f77b4' stroke-width='3'/><text x='648' y='64' font-size='12'>s*f(k~)</text>
<line x1='610' y1='80' x2='640' y2='80' stroke='#d62728' stroke-width='3'/><text x='648' y='84' font-size='12'>(n+g+δ)k~ (discrete equivalent)</text>
<line x1='610' y1='100' x2='640' y2='100' stroke='#000' stroke-dasharray='6 5'/><text x='648' y='104' font-size='12'>k~*=4.51</text>
</svg>